<?xml version="1.0" encoding="utf-8"?>
<!-- Generator: Adobe Illustrator 27.5.0, SVG Export Plug-In . SVG Version: 6.00 Build 0)  -->
<svg version="1.1" xmlns="http://www.w3.org/2000/svg" xmlns:xlink="http://www.w3.org/1999/xlink" x="0px" y="0px"
	 viewBox="0 0 841.89 566.929" style="enable-background:new 0 0 841.89 566.929;" xml:space="preserve">
<g id="BG">
	<rect y="0" style="fill:#FFFFFF;" width="841.89" height="566.929"/>
</g>
<g id="graphics">
	<g>
		<path style="fill:#5A6569;" d="M295.138,417.041v-2.323c-1.641,2.552-3.851,4.147-6.63,4.784c-2.78,0.637-5.535,0.41-8.27-0.684
			c-2.733-1.094-5.081-3.12-7.039-6.083c-1.961-2.96-2.939-6.855-2.939-11.687c0-5.649,1.299-10.228,3.896-13.737
			c2.598-3.508,6.767-5.263,12.508-5.263c4.374,0,8.428,1.185,12.165,3.554c3.736,2.371,5.604,6.745,5.604,13.122v19.273
			c0,6.378-1.868,10.73-5.604,13.055c-3.737,2.323-7.791,3.485-12.165,3.485c-8.386,0-13.58-3.919-15.583-11.756h9.979
			c0.728,1.275,1.846,2.256,3.349,2.939c1.504,0.684,3.008,0.864,4.511,0.547c1.504-0.32,2.871-1.209,4.102-2.666
			C294.249,422.144,294.954,419.957,295.138,417.041z M279.555,401.322c0,6.287,1.822,9.773,5.468,10.457
			c3.643,0.683,6.333-0.158,8.065-2.529c0.819-1.002,1.411-2.573,1.776-4.716c0.363-2.14,0.387-4.259,0.068-6.356
			c-0.32-2.095-1.072-3.964-2.255-5.604c-1.186-1.64-2.918-2.46-5.194-2.46c-3.1,0-5.194,1.141-6.288,3.417
			C280.102,395.81,279.555,398.406,279.555,401.322z"/>
		<path style="fill:#5A6569;" d="M333.761,408.02h6.834c-1.003,3.828-2.917,6.745-5.74,8.749c-2.826,2.097-6.38,3.144-10.662,3.144
			c-5.194,0-9.25-1.686-12.166-5.058c-2.917-3.28-4.374-7.973-4.374-14.079c0-5.831,1.412-10.389,4.237-13.669
			c2.916-3.371,6.972-5.058,12.166-5.058c5.468,0,9.705,1.64,12.712,4.921c2.916,3.372,4.374,8.064,4.374,14.079
			c0,0.365,0,0.684,0,0.957c0,0.273,0,0.457,0,0.546c0,0.457-0.047,0.775-0.137,0.957h-23.647c0.09,2.826,0.773,4.921,2.051,6.288
			c1.183,1.459,2.96,2.186,5.331,2.186c1.548,0,2.87-0.317,3.964-0.956c0.273-0.09,0.523-0.25,0.752-0.479
			c0.227-0.227,0.479-0.478,0.752-0.752c0.089-0.273,0.431-0.637,1.024-1.094C331.823,408.248,332.667,408.02,333.761,408.02z
			 M317.357,397.358H331.3c-0.184-2.46-0.819-4.282-1.913-5.467c-1.185-1.275-2.871-1.914-5.058-1.914
			c-2.006,0-3.647,0.639-4.921,1.914C318.131,393.167,317.447,394.989,317.357,397.358z"/>
		<path style="fill:#5A6569;" d="M375.759,419.229h-4.784c-1.367,0-2.484-0.432-3.35-1.299c-0.867-0.864-1.299-1.981-1.299-3.349
			v-18.59c0-2.188-0.662-3.78-1.982-4.784c-1.322-1.002-2.803-1.504-4.442-1.504c-1.641,0-3.1,0.502-4.374,1.504
			c-1.277,1.004-1.914,2.597-1.914,4.784v23.237h-9.568v-21.324c0-6.195,1.617-10.341,4.852-12.438
			c3.233-2.096,6.812-3.233,10.73-3.417c4.009,0,7.699,1.048,11.072,3.144c3.37,2.098,5.058,6.335,5.058,12.712V419.229z"/>
		<path style="fill:#5A6569;" d="M404.949,408.02h6.834c-1.003,3.828-2.917,6.745-5.74,8.749c-2.826,2.097-6.38,3.144-10.662,3.144
			c-5.194,0-9.25-1.686-12.166-5.058c-2.917-3.28-4.374-7.973-4.374-14.079c0-5.831,1.412-10.389,4.237-13.669
			c2.916-3.371,6.972-5.058,12.166-5.058c5.468,0,9.705,1.64,12.712,4.921c2.916,3.372,4.374,8.064,4.374,14.079
			c0,0.365,0,0.684,0,0.957c0,0.273,0,0.457,0,0.546c0,0.457-0.047,0.775-0.137,0.957h-23.647c0.09,2.826,0.773,4.921,2.051,6.288
			c1.183,1.459,2.96,2.186,5.331,2.186c1.548,0,2.87-0.317,3.964-0.956c0.273-0.09,0.523-0.25,0.752-0.479
			c0.227-0.227,0.479-0.478,0.752-0.752c0.089-0.273,0.431-0.637,1.024-1.094C403.012,408.248,403.855,408.02,404.949,408.02z
			 M388.546,397.358h13.942c-0.184-2.46-0.819-4.282-1.913-5.467c-1.186-1.275-2.871-1.914-5.058-1.914
			c-2.006,0-3.646,0.639-4.921,1.914C389.319,393.167,388.636,394.989,388.546,397.358z"/>
		<path style="fill:#5A6569;" d="M415.233,419.229v-17.633c0-3.555,0.523-6.538,1.572-8.954c1.046-2.413,2.481-4.35,4.305-5.809
			c1.73-1.367,3.76-2.369,6.084-3.008c2.322-0.637,4.715-0.957,7.176-0.957c0.182,0,0.41,0,0.684,0c0.273,0,0.5,0,0.684,0v9.705
			h-3.144c-2.645,0-4.604,0.639-5.877,1.914c-1.277,1.277-1.914,3.28-1.914,6.015v18.727H415.233z"/>
		<path style="fill:#5A6569;" d="M461.331,417.725c-1.914,1.004-3.943,1.617-6.082,1.846c-2.143,0.227-4.033,0.342-5.674,0.342
			c-3.281,0-6.15-0.889-8.611-2.666c-2.461-1.776-3.691-4.716-3.691-8.816c0-3.827,1.115-6.56,3.35-8.201
			c2.232-1.641,5.078-2.734,8.543-3.28c0.455,0,1.002-0.068,1.641-0.205c0.637-0.137,1.367-0.25,2.188-0.342
			c4.008-0.547,6.014-1.73,6.014-3.555c0-1.366-0.707-2.255-2.119-2.665c-1.414-0.41-2.711-0.615-3.895-0.615
			c-1.277,0-2.416,0.184-3.418,0.547c-1.004,0.365-1.732,1.049-2.188,2.051h-9.158c0.363-2.824,1.641-5.147,3.828-6.972
			c2.461-2.096,5.967-3.144,10.525-3.144c5.102,0,8.93,0.867,11.482,2.597c2.641,1.824,3.963,4.374,3.963,7.654v12.439
			c0,3.646-0.662,6.493-1.982,8.543C464.726,415.333,463.153,416.815,461.331,417.725z M459.144,400.912
			c-1.277,0.639-3.055,1.229-5.33,1.776l-3.145,0.684c-1.641,0.457-2.826,1.049-3.555,1.777c-0.639,1.004-0.957,2.006-0.957,3.007
			c0,1.367,0.41,2.461,1.23,3.281c0.82,0.73,2.004,1.093,3.555,1.093c2.551,0,4.555-0.728,6.014-2.186
			c1.457-1.457,2.188-3.462,2.188-6.015V400.912z"/>
		<path style="fill:#5A6569;" d="M486.925,419.229c-3.008,0.182-6.266,0.137-9.773-0.137c-3.51-0.273-5.262-2.505-5.262-6.698
			v-40.186h4.92c1.184,0,2.232,0.457,3.145,1.366c0.91,0.912,1.367,2.006,1.367,3.281v6.15h5.603v1.914
			c0,1.367-0.457,2.484-1.367,3.349c-0.912,0.867-2.006,1.299-3.279,1.299h-0.957v20.23c0,1.551,0.91,2.323,2.732,2.323h2.871
			V419.229z"/>
		<path style="fill:#5A6569;" d="M490.966,372.207h4.92c1.275,0,2.369,0.457,3.281,1.366c0.91,0.912,1.367,2.006,1.367,3.281v2.87
			h-9.568V372.207z M490.966,382.868h4.92c1.275,0,2.369,0.457,3.281,1.367c0.91,0.912,1.367,2.006,1.367,3.28v31.713h-9.568
			V382.868z"/>
		<path style="fill:#5A6569;" d="M508.854,415.948c-1.914-1.641-3.281-3.849-4.102-6.63c-0.82-2.778-1.23-5.673-1.23-8.68
			c0-2.461,0.342-4.921,1.025-7.382c0.684-2.46,1.754-4.511,3.213-6.15c2.369-2.734,5.42-4.352,9.158-4.853
			c3.736-0.5,7.107-0.205,10.115,0.888c3.463,1.367,6.014,3.738,7.654,7.108c1.549,3.007,2.324,6.517,2.324,10.525
			c0,2.917-0.32,5.423-0.957,7.518c-0.639,2.098-1.459,3.875-2.461,5.331c-2.188,3.008-4.967,4.876-8.338,5.604
			c-3.008,0.82-6.037,0.889-9.09,0.205C513.112,418.75,510.677,417.588,508.854,415.948z M515.415,391.891
			c-1.914,2.097-2.781,5.218-2.598,9.363c0.182,4.147,0.957,7.039,2.324,8.68c0.547,0.73,1.504,1.346,2.871,1.846
			c1.367,0.501,2.756,0.546,4.168,0.136c1.412-0.409,2.666-1.435,3.76-3.075c1.094-1.641,1.686-4.282,1.777-7.928
			c0-3.281-0.525-5.741-1.572-7.382c-1.049-1.64-2.256-2.686-3.623-3.143c-1.365-0.455-2.732-0.479-4.1-0.068
			C517.056,390.729,516.052,391.254,515.415,391.891z"/>
		<path style="fill:#5A6569;" d="M571.63,419.229h-4.785c-1.367,0-2.484-0.432-3.35-1.299c-0.867-0.864-1.299-1.981-1.299-3.349
			v-18.59c0-2.188-0.662-3.78-1.981-4.784c-1.322-1.002-2.803-1.504-4.443-1.504c-1.641,0-3.1,0.502-4.373,1.504
			c-1.277,1.004-1.914,2.597-1.914,4.784v23.237h-9.568v-21.324c0-6.195,1.617-10.341,4.852-12.438
			c3.234-2.096,6.813-3.233,10.73-3.417c4.01,0,7.699,1.048,11.072,3.144c3.371,2.098,5.059,6.335,5.059,12.712V419.229z"/>
	</g>
	<g>
		<g>
			<path style="fill:#8C9799;" d="M334.831,441.377c-0.695-0.655-1.669-0.983-2.921-0.983c-0.894,0-1.679,0.189-2.354,0.566
				c-0.676,0.378-1.237,0.874-1.684,1.49c-0.447,0.616-0.785,1.316-1.013,2.101c-0.229,0.785-0.343,1.585-0.343,2.399
				c0,0.815,0.114,1.614,0.343,2.398c0.228,0.785,0.566,1.485,1.013,2.102c0.447,0.616,1.008,1.112,1.684,1.49
				c0.675,0.377,1.46,0.565,2.354,0.565c0.576,0,1.122-0.108,1.639-0.327c0.516-0.219,0.973-0.522,1.371-0.909
				c0.398-0.388,0.725-0.85,0.983-1.386c0.258-0.536,0.418-1.122,0.477-1.759h1.877c-0.258,1.868-0.944,3.323-2.056,4.366
				c-1.113,1.043-2.543,1.564-4.292,1.564c-1.172,0-2.21-0.214-3.114-0.641c-0.904-0.427-1.664-1.008-2.28-1.743
				c-0.616-0.734-1.083-1.595-1.4-2.578c-0.318-0.983-0.477-2.031-0.477-3.144s0.159-2.161,0.477-3.145
				c0.317-0.983,0.785-1.842,1.4-2.577c0.616-0.735,1.375-1.321,2.28-1.759c0.904-0.437,1.942-0.655,3.114-0.655
				c1.649,0,3.044,0.438,4.187,1.311c1.142,0.874,1.823,2.195,2.042,3.963h-1.878C336.003,442.938,335.526,442.033,334.831,441.377z
				"/>
			<path style="fill:#8C9799;" d="M342.609,439.262v3.605h0.059c0.477-1.252,1.217-2.215,2.22-2.891
				c1.003-0.675,2.2-0.983,3.591-0.924v1.877c-0.855-0.039-1.629,0.075-2.324,0.343c-0.696,0.269-1.296,0.651-1.803,1.148
				c-0.506,0.497-0.899,1.088-1.177,1.773c-0.278,0.686-0.417,1.436-0.417,2.25v8.195h-1.877v-15.377H342.609z"/>
			<path style="fill:#8C9799;" d="M351.117,449.558c0.189,0.725,0.492,1.376,0.909,1.952c0.418,0.576,0.944,1.053,1.58,1.431
				c0.636,0.377,1.401,0.565,2.295,0.565c1.371,0,2.443-0.357,3.218-1.072c0.775-0.716,1.311-1.669,1.609-2.861h1.878
				c-0.397,1.749-1.128,3.1-2.19,4.053c-1.063,0.954-2.568,1.431-4.515,1.431c-1.212,0-2.26-0.214-3.144-0.641
				c-0.884-0.427-1.604-1.013-2.161-1.758c-0.557-0.745-0.969-1.609-1.237-2.593c-0.268-0.983-0.402-2.022-0.402-3.114
				c0-1.014,0.134-2.007,0.402-2.98c0.268-0.973,0.68-1.843,1.237-2.607c0.556-0.765,1.276-1.381,2.161-1.848
				c0.884-0.467,1.932-0.7,3.144-0.7c1.231,0,2.284,0.248,3.159,0.745c0.874,0.496,1.584,1.147,2.131,1.952
				c0.546,0.804,0.939,1.727,1.177,2.771c0.238,1.043,0.337,2.101,0.298,3.174h-11.831
				C350.834,448.132,350.928,448.833,351.117,449.558z M360.415,443.821c-0.229-0.656-0.551-1.237-0.968-1.744
				c-0.417-0.506-0.924-0.913-1.52-1.222c-0.596-0.308-1.271-0.462-2.026-0.462c-0.775,0-1.461,0.154-2.057,0.462
				c-0.596,0.309-1.103,0.716-1.52,1.222c-0.418,0.507-0.75,1.093-0.999,1.759c-0.249,0.666-0.413,1.346-0.492,2.041h9.954
				C360.768,445.162,360.643,444.477,360.415,443.821z"/>
			<path style="fill:#8C9799;" d="M365.585,441.646c0.318-0.655,0.75-1.192,1.296-1.609c0.546-0.417,1.187-0.725,1.922-0.924
				c0.735-0.198,1.55-0.298,2.444-0.298c0.675,0,1.351,0.064,2.026,0.193c0.675,0.13,1.281,0.373,1.818,0.73
				c0.536,0.357,0.973,0.859,1.311,1.505s0.507,1.485,0.507,2.519v8.165c0,0.755,0.367,1.133,1.103,1.133
				c0.218,0,0.417-0.04,0.596-0.119v1.579c-0.219,0.04-0.413,0.069-0.581,0.089c-0.169,0.021-0.383,0.03-0.641,0.03
				c-0.477,0-0.859-0.064-1.147-0.193c-0.288-0.129-0.512-0.314-0.671-0.552c-0.159-0.238-0.263-0.521-0.313-0.85
				c-0.05-0.327-0.074-0.69-0.074-1.087h-0.059c-0.338,0.496-0.681,0.938-1.028,1.326c-0.348,0.387-0.735,0.71-1.162,0.968
				c-0.427,0.259-0.914,0.457-1.46,0.597c-0.546,0.139-1.197,0.208-1.952,0.208c-0.715,0-1.386-0.085-2.012-0.253
				c-0.626-0.169-1.172-0.436-1.639-0.805c-0.467-0.367-0.835-0.835-1.103-1.4c-0.268-0.566-0.402-1.237-0.402-2.012
				c0-1.073,0.238-1.912,0.715-2.519c0.477-0.605,1.107-1.067,1.892-1.386c0.785-0.317,1.669-0.541,2.652-0.67
				c0.983-0.13,1.982-0.254,2.995-0.373c0.397-0.039,0.745-0.089,1.043-0.149c0.298-0.06,0.546-0.163,0.745-0.313
				c0.198-0.149,0.353-0.352,0.462-0.611c0.109-0.258,0.164-0.596,0.164-1.013c0-0.636-0.104-1.157-0.313-1.564
				c-0.208-0.407-0.497-0.73-0.864-0.969c-0.368-0.238-0.795-0.402-1.281-0.491c-0.487-0.09-1.009-0.135-1.565-0.135
				c-1.192,0-2.165,0.283-2.92,0.85c-0.755,0.566-1.152,1.475-1.192,2.727h-1.878C365.079,443.076,365.268,442.301,365.585,441.646z
				 M374.973,446.234c-0.119,0.219-0.348,0.378-0.685,0.478c-0.338,0.1-0.636,0.169-0.894,0.208
				c-0.795,0.14-1.614,0.264-2.458,0.373c-0.845,0.109-1.614,0.273-2.31,0.491c-0.696,0.219-1.267,0.532-1.714,0.939
				c-0.447,0.407-0.67,0.988-0.67,1.743c0,0.477,0.094,0.898,0.283,1.267c0.189,0.367,0.442,0.686,0.76,0.953
				c0.318,0.268,0.686,0.473,1.103,0.611c0.418,0.139,0.844,0.208,1.282,0.208c0.715,0,1.4-0.108,2.056-0.327
				c0.656-0.219,1.227-0.537,1.714-0.954c0.486-0.417,0.874-0.924,1.162-1.52c0.288-0.596,0.432-1.272,0.432-2.026v-2.444H374.973z"
				/>
			<path style="fill:#8C9799;" d="M386.774,439.262v1.579h-3.129v10.371c0,0.615,0.085,1.098,0.253,1.445
				c0.169,0.348,0.591,0.541,1.267,0.581c0.536,0,1.073-0.03,1.609-0.09v1.58c-0.279,0-0.557,0.01-0.835,0.029
				c-0.279,0.02-0.557,0.03-0.834,0.03c-1.252,0-2.126-0.243-2.623-0.73c-0.497-0.486-0.735-1.386-0.715-2.697v-10.52h-2.682v-1.579
				h2.682v-4.619h1.877v4.619H386.774z"/>
			<path style="fill:#8C9799;" d="M391.393,433.36v3.01h-1.878v-3.01H391.393z M391.393,439.262v15.377h-1.878v-15.377H391.393z"/>
			<path style="fill:#8C9799;" d="M395.356,439.262l4.828,13.499h0.059l4.768-13.499h1.937l-5.751,15.377h-1.997l-5.931-15.377
				H395.356z"/>
			<path style="fill:#8C9799;" d="M410.183,449.558c0.189,0.725,0.492,1.376,0.909,1.952c0.418,0.576,0.944,1.053,1.58,1.431
				c0.636,0.377,1.401,0.565,2.295,0.565c1.371,0,2.443-0.357,3.218-1.072c0.775-0.716,1.311-1.669,1.609-2.861h1.877
				c-0.398,1.749-1.128,3.1-2.19,4.053c-1.063,0.954-2.568,1.431-4.515,1.431c-1.212,0-2.26-0.214-3.144-0.641
				c-0.884-0.427-1.604-1.013-2.161-1.758c-0.557-0.745-0.969-1.609-1.237-2.593c-0.268-0.983-0.402-2.022-0.402-3.114
				c0-1.014,0.134-2.007,0.402-2.98c0.268-0.973,0.68-1.843,1.237-2.607c0.556-0.765,1.276-1.381,2.161-1.848
				c0.884-0.467,1.932-0.7,3.144-0.7c1.232,0,2.284,0.248,3.159,0.745c0.874,0.496,1.584,1.147,2.131,1.952
				c0.546,0.804,0.939,1.727,1.177,2.771c0.238,1.043,0.337,2.101,0.298,3.174h-11.831
				C409.899,448.132,409.994,448.833,410.183,449.558z M419.48,443.821c-0.228-0.656-0.551-1.237-0.968-1.744
				c-0.417-0.506-0.924-0.913-1.52-1.222c-0.596-0.308-1.271-0.462-2.026-0.462c-0.775,0-1.46,0.154-2.057,0.462
				c-0.596,0.309-1.103,0.716-1.52,1.222c-0.417,0.507-0.75,1.093-0.999,1.759c-0.249,0.666-0.413,1.346-0.492,2.041h9.954
				C419.833,445.162,419.708,444.477,419.48,443.821z"/>
			<path style="fill:#8C9799;" d="M434.277,439.262v2.92h0.06c0.436-1.072,1.147-1.902,2.131-2.488
				c0.983-0.586,2.101-0.879,3.352-0.879c1.172,0,2.19,0.219,3.055,0.655c0.864,0.438,1.584,1.028,2.16,1.773
				c0.576,0.745,1.003,1.609,1.282,2.593c0.277,0.983,0.417,2.022,0.417,3.114c0,1.093-0.14,2.131-0.417,3.114
				c-0.279,0.983-0.706,1.848-1.282,2.593c-0.576,0.745-1.296,1.331-2.16,1.758c-0.864,0.427-1.883,0.641-3.055,0.641
				c-0.557,0-1.113-0.069-1.669-0.208c-0.557-0.14-1.073-0.348-1.55-0.626c-0.477-0.278-0.9-0.626-1.267-1.043
				c-0.367-0.418-0.65-0.904-0.849-1.461h-0.06v8.583h-1.878v-21.039H434.277z M444.573,444.581
				c-0.188-0.785-0.486-1.485-0.893-2.102c-0.407-0.615-0.929-1.117-1.564-1.505c-0.637-0.387-1.401-0.581-2.295-0.581
				c-1.033,0-1.897,0.179-2.593,0.536c-0.695,0.358-1.252,0.835-1.669,1.431c-0.417,0.597-0.71,1.292-0.879,2.086
				c-0.169,0.795-0.253,1.63-0.253,2.504c0,0.795,0.094,1.584,0.282,2.369c0.189,0.785,0.497,1.485,0.924,2.101
				c0.428,0.616,0.983,1.118,1.669,1.505c0.685,0.388,1.524,0.581,2.518,0.581c0.894,0,1.658-0.193,2.295-0.581
				c0.636-0.387,1.157-0.889,1.564-1.505c0.407-0.615,0.705-1.316,0.893-2.101c0.189-0.785,0.283-1.574,0.283-2.369
				C444.856,446.155,444.762,445.366,444.573,444.581z"/>
			<path style="fill:#8C9799;" d="M451.04,449.558c0.188,0.725,0.492,1.376,0.909,1.952s0.943,1.053,1.579,1.431
				c0.636,0.377,1.4,0.565,2.295,0.565c1.371,0,2.443-0.357,3.219-1.072c0.774-0.716,1.31-1.669,1.609-2.861h1.877
				c-0.397,1.749-1.128,3.1-2.19,4.053c-1.063,0.954-2.568,1.431-4.515,1.431c-1.212,0-2.261-0.214-3.145-0.641
				c-0.884-0.427-1.604-1.013-2.16-1.758c-0.557-0.745-0.969-1.609-1.236-2.593c-0.268-0.983-0.402-2.022-0.402-3.114
				c0-1.014,0.134-2.007,0.402-2.98c0.268-0.973,0.68-1.843,1.236-2.607c0.556-0.765,1.276-1.381,2.16-1.848
				c0.884-0.467,1.933-0.7,3.145-0.7c1.232,0,2.284,0.248,3.159,0.745c0.874,0.496,1.584,1.147,2.131,1.952
				c0.546,0.804,0.939,1.727,1.177,2.771c0.238,1.043,0.338,2.101,0.298,3.174h-11.831
				C450.757,448.132,450.851,448.833,451.04,449.558z M460.338,443.821c-0.229-0.656-0.551-1.237-0.969-1.744
				c-0.417-0.506-0.924-0.913-1.52-1.222c-0.596-0.308-1.271-0.462-2.026-0.462c-0.775,0-1.46,0.154-2.057,0.462
				c-0.596,0.309-1.103,0.716-1.52,1.222c-0.417,0.507-0.75,1.093-0.998,1.759c-0.249,0.666-0.413,1.346-0.492,2.041h9.954
				C460.69,445.162,460.566,444.477,460.338,443.821z"/>
			<path style="fill:#8C9799;" d="M474.732,439.47c0.903,0.438,1.663,1.023,2.279,1.759c0.615,0.735,1.083,1.594,1.4,2.577
				c0.317,0.983,0.478,2.032,0.478,3.145s-0.16,2.16-0.478,3.144c-0.317,0.983-0.785,1.844-1.4,2.578
				c-0.616,0.735-1.376,1.316-2.279,1.743c-0.904,0.427-1.942,0.641-3.114,0.641c-1.173,0-2.211-0.214-3.114-0.641
				c-0.904-0.427-1.665-1.008-2.28-1.743c-0.616-0.734-1.083-1.595-1.4-2.578c-0.318-0.983-0.477-2.031-0.477-3.144
				s0.158-2.161,0.477-3.145c0.317-0.983,0.784-1.842,1.4-2.577c0.615-0.735,1.376-1.321,2.28-1.759
				c0.903-0.437,1.941-0.655,3.114-0.655C472.79,438.815,473.828,439.033,474.732,439.47z M469.264,440.96
				c-0.676,0.378-1.237,0.874-1.684,1.49c-0.447,0.616-0.785,1.316-1.014,2.101c-0.228,0.785-0.343,1.585-0.343,2.399
				c0,0.815,0.114,1.614,0.343,2.398c0.229,0.785,0.566,1.485,1.014,2.102c0.446,0.616,1.008,1.112,1.684,1.49
				c0.675,0.377,1.46,0.565,2.354,0.565c0.893,0,1.678-0.188,2.353-0.565c0.676-0.378,1.237-0.874,1.685-1.49
				c0.446-0.616,0.784-1.316,1.013-2.102c0.229-0.784,0.343-1.584,0.343-2.398c0-0.814-0.114-1.614-0.343-2.399
				c-0.228-0.784-0.566-1.484-1.013-2.101c-0.447-0.616-1.009-1.112-1.685-1.49c-0.676-0.377-1.46-0.566-2.353-0.566
				C470.724,440.394,469.938,440.583,469.264,440.96z"/>
			<path style="fill:#8C9799;" d="M483.419,439.262v2.92h0.06c0.437-1.072,1.148-1.902,2.131-2.488
				c0.983-0.586,2.101-0.879,3.353-0.879c1.172,0,2.19,0.219,3.055,0.655c0.864,0.438,1.584,1.028,2.16,1.773
				c0.576,0.745,1.003,1.609,1.282,2.593c0.277,0.983,0.417,2.022,0.417,3.114c0,1.093-0.14,2.131-0.417,3.114
				c-0.279,0.983-0.706,1.848-1.282,2.593c-0.576,0.745-1.296,1.331-2.16,1.758c-0.864,0.427-1.883,0.641-3.055,0.641
				c-0.557,0-1.113-0.069-1.669-0.208c-0.557-0.14-1.073-0.348-1.55-0.626c-0.477-0.278-0.899-0.626-1.267-1.043
				c-0.367-0.418-0.65-0.904-0.849-1.461h-0.06v8.583h-1.878v-21.039H483.419z M493.715,444.581
				c-0.188-0.785-0.486-1.485-0.893-2.102c-0.407-0.615-0.929-1.117-1.565-1.505c-0.637-0.387-1.401-0.581-2.295-0.581
				c-1.033,0-1.897,0.179-2.593,0.536c-0.695,0.358-1.252,0.835-1.669,1.431c-0.417,0.597-0.71,1.292-0.879,2.086
				c-0.169,0.795-0.253,1.63-0.253,2.504c0,0.795,0.094,1.584,0.282,2.369c0.189,0.785,0.497,1.485,0.924,2.101
				c0.428,0.616,0.983,1.118,1.669,1.505c0.685,0.388,1.524,0.581,2.518,0.581c0.894,0,1.658-0.193,2.295-0.581
				c0.636-0.387,1.157-0.889,1.565-1.505c0.407-0.615,0.705-1.316,0.893-2.101c0.189-0.785,0.283-1.574,0.283-2.369
				C493.998,446.155,493.903,445.366,493.715,444.581z"/>
			<path style="fill:#8C9799;" d="M500.703,433.36v21.278h-1.878V433.36H500.703z"/>
			<path style="fill:#8C9799;" d="M505.694,449.558c0.189,0.725,0.492,1.376,0.909,1.952s0.943,1.053,1.579,1.431
				c0.636,0.377,1.4,0.565,2.295,0.565c1.371,0,2.443-0.357,3.219-1.072c0.774-0.716,1.31-1.669,1.609-2.861h1.877
				c-0.397,1.749-1.128,3.1-2.19,4.053c-1.063,0.954-2.568,1.431-4.515,1.431c-1.212,0-2.261-0.214-3.144-0.641
				c-0.884-0.427-1.605-1.013-2.16-1.758c-0.557-0.745-0.969-1.609-1.236-2.593c-0.268-0.983-0.402-2.022-0.402-3.114
				c0-1.014,0.134-2.007,0.402-2.98c0.268-0.973,0.68-1.843,1.236-2.607c0.556-0.765,1.276-1.381,2.16-1.848
				c0.884-0.467,1.933-0.7,3.144-0.7c1.232,0,2.284,0.248,3.159,0.745c0.874,0.496,1.584,1.147,2.131,1.952
				c0.546,0.804,0.939,1.727,1.177,2.771c0.238,1.043,0.338,2.101,0.298,3.174h-11.831
				C505.411,448.132,505.505,448.833,505.694,449.558z M514.992,443.821c-0.229-0.656-0.551-1.237-0.969-1.744
				c-0.417-0.506-0.924-0.913-1.519-1.222c-0.596-0.308-1.272-0.462-2.026-0.462c-0.775,0-1.46,0.154-2.057,0.462
				c-0.596,0.309-1.103,0.716-1.52,1.222c-0.417,0.507-0.75,1.093-0.998,1.759c-0.249,0.666-0.413,1.346-0.492,2.041h9.954
				C515.345,445.162,515.221,444.477,514.992,443.821z"/>
		</g>
	</g>
	<g>
		<path style="fill:#F03535;" d="M507.521,300.765c5.923,0,11.059-4.158,12.291-9.951l10.121-47.57
			c1.092-5.129-2.813-9.951-8.057-9.951h-68.783c-14.207,0-26.465,8.339-32.15,20.389c-5.685-12.05-17.942-20.389-32.149-20.389
			h-68.784c-5.244,0-9.147,4.821-8.056,9.951l10.121,47.57c1.233,5.793,6.368,9.951,12.291,9.951h20.892l-26.318,45.585
			c-2.261,3.917,0.564,8.811,5.086,8.811h61.707c6.279,0,12.121-3.373,15.26-8.811l9.949-17.232l9.95,17.232
			c3.139,5.438,8.982,8.811,15.26,8.811h61.707c4.522,0,7.348-4.894,5.087-8.811l-26.319-45.585H507.521z"/>
		<path style="fill:#F03535;" d="M419.307,231.837c21.006,0,38.035-17.028,38.035-38.034c-0.001-21.006-17.029-38.035-38.035-38.035
			c-21.005,0-38.034,17.029-38.034,38.035C381.272,214.809,398.301,231.837,419.307,231.837z"/>
	</g>
</g>
</svg>
