<?xml version="1.0" encoding="utf-8"?>
<!-- Generator: Adobe Illustrator 27.5.0, SVG Export Plug-In . SVG Version: 6.00 Build 0)  -->
<svg version="1.1" xmlns="http://www.w3.org/2000/svg" xmlns:xlink="http://www.w3.org/1999/xlink" x="0px" y="0px"
	 viewBox="2649.131 -1821.008 4554.651 3588.58" style="enable-background:new 2649.131 -1821.008 4554.651 3588.58;"
	 xml:space="preserve">
<g id="Layer_1">
</g>
<g id="Layer_2">
</g>
<g id="Dimensions">
	<rect x="2649.131" y="-1821.008" style="fill:#FFFFFF;" width="4554.651" height="3588.58"/>
	
		<radialGradient id="SVGID_1_" cx="20457.2832" cy="-74775.1953" r="2561.3357" fx="18208.1621" fy="-74500.8125" gradientTransform="matrix(0.4477 0.0053 0.0011 -0.0274 -3953.0452 -1347.264)" gradientUnits="userSpaceOnUse">
		<stop  offset="0.0216" style="stop-color:#000000"/>
		<stop  offset="0.1256" style="stop-color:#3B3B3B"/>
		<stop  offset="0.2296" style="stop-color:#6F6F6F"/>
		<stop  offset="0.3352" style="stop-color:#9B9B9B"/>
		<stop  offset="0.4407" style="stop-color:#BFBFBF"/>
		<stop  offset="0.5463" style="stop-color:#DBDBDB"/>
		<stop  offset="0.652" style="stop-color:#EFEFEF"/>
		<stop  offset="0.7581" style="stop-color:#FBFBFB"/>
		<stop  offset="0.8649" style="stop-color:#FFFFFF"/>
	</radialGradient>
	<path style="opacity:0.59;fill-rule:evenodd;clip-rule:evenodd;fill:url(#SVGID_1_);" d="M6720.548,828.95
		c1.542-44.718-712.263-89.453-1594.328-99.919c-882.064-10.466-1598.369,17.3-1599.911,62.018
		c-1.542,44.718,712.263,89.453,1594.328,99.919S6719.006,873.668,6720.548,828.95z"/>
	<g id="Layer_x5F_1_00000023269858389842857120000004981655485119310264_">
		<g id="_105554357501440">
			
				<ellipse transform="matrix(0.6901 -0.7237 0.7237 0.6901 1787.5403 3095.938)" style="fill-rule:evenodd;clip-rule:evenodd;fill:#118AFF;" cx="4509.016" cy="-539.41" rx="142.478" ry="96.229"/>
			<path style="fill-rule:evenodd;clip-rule:evenodd;fill:#118AFF;" d="M6343.24-431.921
				c-102.16-6.265-133.718,53.971-167.683,138.399c-240.985,598.985-605.863,600.955-1207.94,458.246
				c-148.846-35.282-347.64-61.723-509.758-17.083c-19.197,82.319-38.508,164.618-57.715,246.931
				c-21.106,90.462-47.145,236.52-94.598,312.605c-59.264,95.025-163.856,112.458-233.562,18.251
				c-81.414-110.024-64.907-307.98-14.398-427.969c56.043-133.136,151.053-218.552,264.884-269.483
				c14.275-56.429,33.338-114.855,50.632-172.889c-5.309,5.844-9.625,10.53-12.515,13.529
				c-171.325,177.812-383.761,318.798-629.51,188.563c246.818,93.003,422.171-56.419,562.746-245.322
				c33.713-45.308,68.481-102.787,103.023-144.577c28.276-34.207,71.301-54.65,107.334-20.19
				c38.056,36.394,17.66,134.33,11.204,180.569c-6.507,46.574-13.755,99.011-22.201,150.024
				c95.158-16.065,195.579-16.281,292.826-6.152c627.375,65.344,991.589,383.293,1361.364-278.541
				c46.383-83.019,90.277-145.029,195.862-124.921L6343.24-431.921z M4268.761,257.202c-29.81,32.52-54.197,72.144-71.481,120.081
				c-19.635,54.454-32.68,150.667-13.318,217.122c26.847-68.173,51.347-194,61.146-236.006
				C4252.979,324.665,4260.87,290.936,4268.761,257.202z M4481.079-261.141c1.266-0.787,2.449-1.836,4.506-3.555
				C4484.438-263.96,4482.91-262.746,4481.079-261.141z"/>
			<path style="fill:none;" d="M4333.699,648.741c-95.457,215.882-308.649-134.525-64.938-391.539
				c46.064-48.58,108.106-86.949,189.386-110.724c-0.087,0.386-0.175,0.772-0.262,1.152
				c162.112-44.629,360.901-18.189,509.737,17.088c602.077,142.714,966.955,140.744,1207.939-458.246
				c33.966-84.428,65.524-144.664,167.684-138.399c-105.59-20.108-149.479,41.898-195.862,124.922
				C5777.608,354.829,5413.389,36.88,4786.019-28.464c-286.556-29.845-602.411,26.584-728.423,325.922
				c-50.509,119.988-67.016,317.944,14.398,427.968c69.706,94.207,174.299,76.774,233.562-18.251
				c10.345-16.584,19.67-36.496,28.153-58.436L4333.699,648.741z"/>
			<path style="fill-rule:evenodd;clip-rule:evenodd;fill:#118AFF;" d="M4268.761,257.202
				c-7.891,33.729-15.782,67.463-23.652,101.197c-9.799,42.006-34.3,167.832-61.146,236.006
				c-19.362-66.455-6.322-162.673,13.318-217.122C4214.564,329.351,4238.952,289.727,4268.761,257.202L4268.761,257.202z
				 M4400.144,394.572c19.208-82.319,38.518-164.612,57.715-246.932c0.005,0,0.016-0.005,0.021-0.005
				c0.087-0.386,0.175-0.772,0.262-1.152c-81.28,23.775-143.321,62.145-189.386,110.724
				c-243.706,257.014-30.519,607.421,64.938,391.539c6.271-16.214,12.073-33.539,17.484-51.44c0-0.005,0-0.01,0.005-0.015
				c11.409-43.708,21.923-85.441,31.687-125.246c6.255-28.035,11.918-54.536,17.273-77.468L4400.144,394.572z"/>
			<path style="fill-rule:evenodd;clip-rule:evenodd;fill:#118AFF;" d="M4333.699,648.741
				c-95.457,215.882-308.649-134.525-64.938-391.539c46.064-48.58,108.106-86.949,189.386-110.724
				c-0.087,0.386-0.175,0.772-0.262,1.152c162.112-44.629,360.901-18.189,509.737,17.088
				c602.077,142.714,966.955,140.744,1207.939-458.246c33.966-84.428,65.524-144.664,167.684-138.399
				c-105.59-20.108-149.479,41.898-195.862,124.922C5777.608,354.829,5413.389,36.88,4786.019-28.464
				c-286.556-29.845-602.411,26.584-728.423,325.922c-50.509,119.988-67.016,317.944,14.398,427.968
				c69.706,94.207,174.299,76.774,233.562-18.251c10.345-16.584,19.67-36.496,28.153-58.436L4333.699,648.741z"/>
			
				<linearGradient id="SVGID_00000078735485115600406260000014486100839411369627_" gradientUnits="userSpaceOnUse" x1="4431.667" y1="23.5058" x2="4397.5288" y2="-74.0317">
				<stop  offset="0" style="stop-color:#000000"/>
				<stop  offset="0.0308" style="stop-color:#101010"/>
				<stop  offset="0.1617" style="stop-color:#4E4E4E"/>
				<stop  offset="0.2913" style="stop-color:#848484"/>
				<stop  offset="0.4166" style="stop-color:#B0B0B0"/>
				<stop  offset="0.5364" style="stop-color:#D3D3D3"/>
				<stop  offset="0.6495" style="stop-color:#EBEBEB"/>
				<stop  offset="0.7533" style="stop-color:#FAFAFA"/>
				<stop  offset="0.839" style="stop-color:#FFFFFF"/>
			</linearGradient>
			<path style="fill-rule:evenodd;clip-rule:evenodd;fill:url(#SVGID_00000078735485115600406260000014486100839411369627_);" d="
				M4355.37-86.524c-11.671,38.168-23.158,76.162-32.592,113.301c53.441-23.832,110.976-39.933,170.528-49.788
				c3.487-21.106,6.774-42.443,9.887-63.508h-147.817L4355.37-86.524z"/>
			
				<linearGradient id="SVGID_00000049939247573956410050000013975441909149723570_" gradientUnits="userSpaceOnUse" x1="5052.6187" y1="166.1694" x2="6014.9888" y2="-116.6902">
				<stop  offset="0" style="stop-color:#000000"/>
				<stop  offset="0.0672" style="stop-color:#170001"/>
				<stop  offset="0.3709" style="stop-color:#790204"/>
				<stop  offset="0.6162" style="stop-color:#C10306"/>
				<stop  offset="0.7912" style="stop-color:#EE0407"/>
				<stop  offset="0.8792" style="stop-color:#FF0408"/>
			</linearGradient>
			<path style="fill-rule:evenodd;clip-rule:evenodd;fill:url(#SVGID_00000049939247573956410050000013975441909149723570_);" d="
				M6147.378-307c-93.713,167.73-187.066,272.528-284.441,334.461c-127.19,153.265-370.665,241.664-839.379,150.245
				c568.898,129.021,918.57,108.975,1151.999-471.229c33.965-84.428,65.523-144.664,167.683-138.399
				C6237.649-452.029,6193.761-390.024,6147.378-307L6147.378-307z"/>
			<path style="fill-rule:evenodd;clip-rule:evenodd;fill:#FF0408;" d="M4632.327,124.312c21.522-0.432,43.158-0.123,64.737,0.813
				c46.126,1.471,108.759,7.299,159.474,17.16c-483.812-110.071-717.019,22.227-813.803,195.811
				c-38.055,120.374-43.523,288.983,29.254,387.331c69.706,94.207,174.299,76.774,233.562-18.251
				c9.511-15.252,18.163-33.318,26.09-53.183c-0.268,0.324-0.53,0.648-0.797,0.972c-56.126,117.617-149.227,50.565-170.415-76.162
				c-6.204-34.938-6.852-71.074-1.317-99.896c9.496-71.676,41.939-150.292,109.649-221.7
				c21.132-22.284,125.132-98.548,189.124-109.572c59.969-17.155,119.716-23.292,174.438-23.318c0,0,26.821-0.396,64.737,0.813
				c-21.584-0.936-43.214-1.245-64.737-0.813L4632.327,124.312z"/>
			
				<linearGradient id="SVGID_00000026124093821934916740000000290493745123406256_" gradientUnits="userSpaceOnUse" x1="4720.439" y1="302.5781" x2="3993.7844" y2="548.0482">
				<stop  offset="0" style="stop-color:#000000"/>
				<stop  offset="0.0672" style="stop-color:#171717"/>
				<stop  offset="0.3709" style="stop-color:#797979"/>
				<stop  offset="0.6162" style="stop-color:#C1C1C1"/>
				<stop  offset="0.7912" style="stop-color:#EEEEEE"/>
				<stop  offset="0.8792" style="stop-color:#FFFFFF"/>
			</linearGradient>
			<path style="fill-rule:evenodd;clip-rule:evenodd;fill:url(#SVGID_00000026124093821934916740000000290493745123406256_);" d="
				M4632.327,124.312c21.522-0.432,43.158-0.123,64.737,0.813c46.126,1.471,108.759,7.299,159.474,17.16
				c-483.812-110.071-717.019,22.227-813.803,195.811c-38.055,120.374-43.523,288.983,29.254,387.331
				c69.706,94.207,174.299,76.774,233.562-18.251c9.511-15.252,18.163-33.318,26.09-53.183c-0.268,0.324-0.53,0.648-0.797,0.972
				c-56.126,117.617-149.227,50.565-170.415-76.162c-6.204-34.938-6.852-71.074-1.317-99.896
				c9.496-71.676,41.939-150.292,109.649-221.7c21.132-22.284,125.132-98.548,189.124-109.572
				c59.969-17.155,119.716-23.292,174.438-23.318c0,0,26.821-0.396,64.737,0.813c-21.584-0.936-43.214-1.245-64.737-0.813
				L4632.327,124.312z"/>
			
				<linearGradient id="SVGID_00000060708958608049997430000017229167745890629023_" gradientUnits="userSpaceOnUse" x1="4150.1323" y1="758.8921" x2="4275.3057" y2="487.4124">
				<stop  offset="0" style="stop-color:#000000"/>
				<stop  offset="0.0672" style="stop-color:#171717"/>
				<stop  offset="0.3709" style="stop-color:#797979"/>
				<stop  offset="0.6162" style="stop-color:#C1C1C1"/>
				<stop  offset="0.7912" style="stop-color:#EEEEEE"/>
				<stop  offset="0.8792" style="stop-color:#FFFFFF"/>
			</linearGradient>
			<path style="fill-rule:evenodd;clip-rule:evenodd;fill:url(#SVGID_00000060708958608049997430000017229167745890629023_);" d="
				M4383.147,470.816l-156.222-30.134c-11.729,51.713-26.929,113.003-42.963,153.723c-13.863-47.577-11.116-110.41-1.229-162.246
				l-13.56-2.618c-4.614,16.697-7.917,33.21-10.062,49.367c-4.717,35.586-3.775,69.464,1.317,99.896
				c21.188,126.727,114.289,193.779,170.415,76.162c0.962-2.016,1.918-4.095,2.855-6.219c6.271-16.214,12.073-33.539,17.484-51.44
				c0-0.005,0-0.01,0.005-0.016c11.41-43.708,21.924-85.436,31.682-125.235v-0.005c0.092-0.411,0.18-0.818,0.272-1.229
				L4383.147,470.816z"/>
			
				<linearGradient id="SVGID_00000170243909625367372840000007287504621409094283_" gradientUnits="userSpaceOnUse" x1="4351.376" y1="150.3394" x2="4351.376" y2="358.4195">
				<stop  offset="0" style="stop-color:#000000"/>
				<stop  offset="0.0672" style="stop-color:#171717"/>
				<stop  offset="0.3709" style="stop-color:#797979"/>
				<stop  offset="0.6162" style="stop-color:#C1C1C1"/>
				<stop  offset="0.7912" style="stop-color:#EEEEEE"/>
				<stop  offset="0.8792" style="stop-color:#FFFFFF"/>
			</linearGradient>
			<path style="fill-rule:evenodd;clip-rule:evenodd;fill:url(#SVGID_00000170243909625367372840000007287504621409094283_);" d="
				M4244.888,359.361l156.434,30.175c18.817-80.637,37.736-161.253,56.542-241.901c-4.537,0.782-9.274,1.893-14.167,3.287
				c-7.253,2.346-14.352,4.81-21.286,7.392c-61.46,24.696-136.104,80.39-153.646,98.888c-7.891,33.729-15.782,67.463-23.652,101.198
				C4245.042,358.713,4244.965,359.037,4244.888,359.361L4244.888,359.361z"/>
			<path style="fill-rule:evenodd;clip-rule:evenodd;fill:#FF0408;" d="M4320.062-90.855
				c150.806-153.913,226.994-293.896,192.472-73.929l1.888-0.638c0.324-2.32,0.643-4.624,0.967-6.913
				c6.461-46.239,26.852-144.175-11.204-180.569c-36.034-34.46-79.053-14.017-107.334,20.19
				c-34.542,41.784-69.305,99.268-103.023,144.577C4153.253,0.764,3977.9,150.187,3731.082,57.184
				c226.721,120.153,425.088,9.455,588.98-148.033V-90.855z"/>
			
				<linearGradient id="SVGID_00000053516539818526673490000004427084981943891874_" gradientUnits="userSpaceOnUse" x1="4403.3413" y1="-271.9856" x2="4446.8359" y2="-120.4219">
				<stop  offset="0" style="stop-color:#000000"/>
				<stop  offset="0.0649" style="stop-color:#171717"/>
				<stop  offset="0.3578" style="stop-color:#797979"/>
				<stop  offset="0.5945" style="stop-color:#C1C1C1"/>
				<stop  offset="0.7633" style="stop-color:#EEEEEE"/>
				<stop  offset="0.8482" style="stop-color:#FFFFFF"/>
			</linearGradient>
			<path style="fill-rule:evenodd;clip-rule:evenodd;fill:url(#SVGID_00000053516539818526673490000004427084981943891874_);" d="
				M4512.534-164.779c33.225-211.716-36.105-89.984-175.816,56.681h0.972c7.711-7.675,15.344-15.442,22.901-23.282
				c2.891-2.999,7.207-7.685,12.515-13.529c-3.652,12.263-7.387,24.537-11.137,36.81h144.366c2.83-19.655,5.52-38.909,8.086-57.319
				L4512.534-164.779L4512.534-164.779z M4485.585-264.691c-2.063,1.718-3.241,2.767-4.506,3.555
				C4482.91-262.741,4484.438-263.955,4485.585-264.691z"/>
		</g>
	</g>
</g>
<g id="Layer_4">
</g>
</svg>
