<?xml version="1.0" encoding="utf-8"?>
<!-- Generator: Adobe Illustrator 27.5.0, SVG Export Plug-In . SVG Version: 6.00 Build 0)  -->
<svg version="1.1" xmlns="http://www.w3.org/2000/svg" xmlns:xlink="http://www.w3.org/1999/xlink" x="0px" y="0px"
	 viewBox="0 0 800 800" style="enable-background:new 0 0 800 800;" xml:space="preserve">
<g id="_x31_">
	<rect style="fill:#FFFFFF;" width="800" height="800"/>
	<path style="fill:#093E4E;" d="M239.128,578.867v-64.766h16.345c5.529,0,9.831,1.474,13.028,4.302
		c3.071,2.824,4.67,7.126,4.67,12.778c0,3.318-0.739,6.148-2.458,8.603c-1.598,2.461-3.811,4.18-6.39,5.161
		c3.317,0.614,6.022,2.461,7.986,5.412c2.089,3.069,3.074,6.512,3.074,10.443c0,5.776-1.475,10.323-4.67,13.397
		c-3.073,3.071-7.375,4.67-12.659,4.67H239.128z M244.535,547.651v26.669h13.518c3.811,0,6.76-1.232,8.849-3.565
		c2.09-2.333,3.195-5.528,3.195-9.829c0-3.935-0.983-7.132-2.826-9.587c-1.844-2.46-4.67-3.688-8.357-3.688H244.535z
		 M244.535,543.104h12.537c3.44,0,6.02-1.104,7.865-3.197c1.965-2.088,2.826-5.039,2.826-8.972c0-4.057-0.982-7.125-3.072-9.218
		c-2.212-2.086-5.284-3.069-9.217-3.069h-10.938V543.104z M293.327,578.867h-5.409v-64.766h5.409V578.867z M310.899,574.32h31.094
		v4.547h-36.746v-4.301l29.741-55.918h-29.127v-4.547h34.901v4.057L310.899,574.32z M395.821,578.867h-12.658l-19.786-41.415
		l-0.246,0.122v41.293h-12.659v-64.766h12.659l19.788,41.294h0.245v-41.294h12.658V578.867z M435.519,564.979h-17.084l-3.443,13.888
		h-12.654l18.185-64.766h13.15l18.189,64.766H439.08L435.519,564.979z M421.018,554.905h11.918l-5.775-22.861h-0.244
		L421.018,554.905z M473.001,514.102l11.673,47.559h0.25l11.673-47.559h16.47v64.766h-12.537v-18.802l1.105-25.197l-0.245-0.121
		l-12.414,44.12h-8.353l-12.292-43.754l-0.244,0.124l1.105,24.828v18.802h-12.538v-64.766H473.001z M557.061,550.479h-21.755v18.189
		h25.565v10.198h-38.22v-64.766h38.22v10.077h-25.565v16.097h21.755V550.479z"/>
	<path style="fill:#093E4E;" d="M280.176,617.7c0-1.104-0.368-2.087-0.984-2.7c-0.614-0.741-1.719-1.356-3.317-1.97
		c-2.212-0.613-3.933-1.473-5.038-2.577c-1.23-1.11-1.844-2.583-1.844-4.302c0-1.847,0.613-3.319,1.966-4.547
		c1.35-1.232,3.072-1.723,5.161-1.723c2.089,0,3.934,0.613,5.161,1.968c1.353,1.351,1.966,3.069,1.966,4.914v0.124h-3.194
		c0-1.351-0.369-2.459-0.984-3.318c-0.736-0.859-1.719-1.228-2.949-1.228c-1.228,0-2.212,0.369-2.826,0.982
		c-0.739,0.736-0.985,1.596-0.985,2.704c0,1.106,0.369,1.843,0.985,2.579c0.737,0.614,1.967,1.233,3.563,1.847
		c2.089,0.612,3.688,1.596,4.792,2.7c1.231,1.105,1.721,2.707,1.721,4.424c0,1.97-0.614,3.443-1.967,4.67
		c-1.35,1.106-3.071,1.602-5.161,1.602c-2.09,0-3.934-0.617-5.53-1.845c-1.598-1.229-2.335-2.951-2.211-5.162v-0.123h3.194
		c0,1.596,0.368,2.828,1.23,3.563c0.86,0.738,1.966,1.107,3.317,1.107c1.229,0,2.09-0.247,2.826-0.982
		C279.808,619.668,280.176,618.806,280.176,617.7L280.176,617.7z M290.131,621.143h9.216v2.455h-12.412v-23.471h3.195V621.143z
		 M316.061,615.121c0,2.703-0.737,4.918-2.213,6.515c-1.35,1.474-3.317,2.213-5.775,2.213c-2.335,0-4.179-0.739-5.652-2.213
		c-1.353-1.597-2.089-3.811-2.089-6.515v-6.515c0-2.7,0.737-4.915,2.089-6.388c1.474-1.602,3.317-2.337,5.652-2.337
		c2.458,0,4.425,0.735,5.775,2.337c1.476,1.473,2.213,3.688,2.213,6.388V615.121z M312.744,608.606c0-2.088-0.369-3.565-1.105-4.668
		c-0.861-0.985-1.967-1.598-3.566-1.598c-1.475,0-2.581,0.612-3.319,1.598c-0.737,1.103-1.229,2.58-1.229,4.668v6.515
		c0,2.089,0.491,3.563,1.229,4.671c0.738,0.983,1.966,1.598,3.319,1.598c1.598,0,2.704-0.492,3.566-1.598
		c0.736-1.108,1.105-2.582,1.105-4.671V608.606z M334.62,620.282c-0.616,0.86-1.476,1.722-2.583,2.457
		c-1.228,0.736-2.826,1.109-4.669,1.109c-2.459,0-4.425-0.739-5.898-2.213c-1.599-1.475-2.335-3.566-2.335-6.39v-6.885
		c0-2.702,0.736-4.792,2.211-6.266c1.351-1.479,3.318-2.214,5.652-2.214c2.336,0,4.179,0.491,5.532,1.723
		c1.228,1.227,1.842,2.946,1.964,5.037v0.122h-3.071c-0.123-1.472-0.491-2.58-1.229-3.318c-0.738-0.735-1.721-1.104-3.197-1.104
		c-1.351,0-2.457,0.491-3.317,1.473c-0.861,0.983-1.23,2.583-1.23,4.548v6.885c0,2.087,0.369,3.56,1.353,4.67
		c0.859,0.982,2.089,1.474,3.563,1.474c1.107,0,1.966-0.123,2.582-0.492c0.614-0.368,1.106-0.858,1.351-1.473v-5.29h-3.933v-2.455
		h7.252V620.282z M349.735,617.7h-7.496l-1.721,5.898H337.2l7.251-23.471h3.194l7.128,23.471h-3.317L349.735,617.7z
		 M342.976,615.121h6.023l-2.951-10.324h-0.123L342.976,615.121z M372.84,623.598h-3.195l-8.972-17.446l0,0v17.446h-3.319v-23.471
		h3.319l8.849,17.45l0.122-0.122v-17.328h3.195V623.598z M399.386,620.282c-0.491,0.86-1.475,1.722-2.58,2.457
		c-1.23,0.736-2.829,1.109-4.67,1.109c-2.458,0-4.424-0.739-5.9-2.213c-1.475-1.475-2.335-3.566-2.335-6.39v-6.885
		c0-2.702,0.737-4.792,2.212-6.266c1.353-1.479,3.317-2.214,5.652-2.214c2.46,0,4.179,0.491,5.531,1.723
		c1.228,1.227,1.844,2.946,1.967,5.037v0.122h-3.074c-0.123-1.472-0.491-2.58-1.228-3.318c-0.613-0.735-1.721-1.104-3.196-1.104
		c-1.35,0-2.457,0.491-3.317,1.473c-0.86,0.983-1.23,2.583-1.23,4.548v6.885c0,2.087,0.371,3.56,1.352,4.67
		c0.86,0.982,2.09,1.474,3.565,1.474c1.105,0,1.965-0.123,2.581-0.492c0.613-0.368,1.105-0.858,1.351-1.473v-5.29h-3.932v-2.455
		h7.25V620.282z M418.803,615.121c0,2.703-0.736,4.918-2.21,6.515c-1.477,1.474-3.319,2.213-5.779,2.213
		c-2.333,0-4.302-0.739-5.652-2.213c-1.352-1.597-2.088-3.811-2.088-6.515v-6.515c0-2.7,0.736-4.915,2.088-6.388
		c1.351-1.602,3.319-2.337,5.652-2.337c2.46,0,4.303,0.735,5.779,2.337c1.474,1.473,2.21,3.688,2.21,6.388V615.121z
		 M415.483,608.606c0-2.088-0.367-3.565-1.229-4.668c-0.735-0.985-1.963-1.598-3.441-1.598c-1.473,0-2.578,0.612-3.315,1.598
		c-0.863,1.103-1.232,2.58-1.232,4.668v6.515c0,2.089,0.369,3.563,1.232,4.671c0.737,0.983,1.843,1.598,3.315,1.598
		c1.479,0,2.706-0.492,3.441-1.598c0.861-1.108,1.229-2.582,1.229-4.671V608.606z M434.412,612.663h-8.602v8.479h10.076v2.455
		H422.49v-23.471h13.273v2.458h-9.953v7.623h8.602V612.663z M449.528,617.7c0-1.104-0.246-2.087-0.86-2.7
		c-0.617-0.741-1.724-1.356-3.318-1.97c-2.215-0.613-3.933-1.473-5.039-2.577c-1.23-1.11-1.845-2.583-1.845-4.302
		c0-1.847,0.614-3.319,1.969-4.547c1.35-1.232,3.069-1.723,5.16-1.723c2.087,0,3.934,0.613,5.161,1.968
		c1.352,1.351,1.964,3.069,1.964,4.914v0.124h-3.191c0-1.351-0.368-2.459-0.982-3.318c-0.741-0.859-1.724-1.228-2.951-1.228
		c-1.228,0-2.214,0.369-2.828,0.982c-0.737,0.736-0.982,1.596-0.982,2.704c0,1.106,0.368,1.843,0.982,2.579
		c0.737,0.614,1.969,1.233,3.565,1.847c2.092,0.612,3.688,1.596,4.793,2.7c1.227,1.105,1.724,2.707,1.724,4.424
		c0,1.97-0.62,3.443-1.97,4.67c-1.351,1.106-3.074,1.602-5.161,1.602c-2.092,0-3.934-0.617-5.529-1.845
		c-1.601-1.229-2.338-2.951-2.216-5.162v-0.123h3.197c0,1.596,0.369,2.828,1.228,3.563c0.86,0.738,1.97,1.107,3.32,1.107
		c1.226,0,2.087-0.247,2.828-0.982C449.282,619.668,449.528,618.806,449.528,617.7L449.528,617.7z M479.021,623.598h-3.192v-10.444
		h-8.972v10.444h-3.318v-23.471h3.318v10.571h8.972v-10.571h3.192V623.598z M495.491,612.663h-8.603v8.479h10.077v2.455h-13.396
		v-23.471h13.272v2.458h-9.953v7.623h8.603V612.663z M503.23,613.399v10.198h-3.313v-23.471h7.371c2.212,0,3.932,0.618,5.036,1.723
		c1.231,1.227,1.846,2.824,1.846,5.038c0,1.104-0.244,2.21-0.858,3.075c-0.492,0.981-1.354,1.717-2.337,2.207
		c1.104,0.371,1.969,1.107,2.46,1.965c0.491,0.986,0.735,2.216,0.735,3.565v2.092c0,0.615,0.124,1.351,0.246,1.965
		c0.122,0.614,0.368,1.105,0.737,1.475v0.366h-3.32c-0.367-0.366-0.613-0.858-0.736-1.594c-0.122-0.737-0.122-1.475-0.122-2.336
		V617.7c0-1.35-0.246-2.332-0.86-3.069c-0.614-0.739-1.473-1.232-2.46-1.232H503.23z M503.23,610.943h3.81
		c1.355,0,2.338-0.369,2.951-0.981c0.614-0.742,0.983-1.725,0.983-3.075s-0.369-2.337-0.983-3.074
		c-0.613-0.737-1.473-1.103-2.703-1.103h-4.059V610.943z M530.637,612.663h-8.722v8.479h10.077v2.455h-13.396v-23.471h13.273v2.458
		h-9.954v7.623h8.722V612.663z"/>
	<g>
		<path style="fill-rule:evenodd;clip-rule:evenodd;fill:#093E4E;" d="M400.016,456.546c76.673,0,138.999-62.15,138.999-138.825
			c0-46.22-22.411-87.011-56.897-112.218c-12.605,86.655-40.789,174.539-82.98,251.043H400.016z M456.208,190.446
			c-17.152-7.527-36.235-11.728-56.192-11.728c-35.017,0-66.876,12.955-91.387,34.137l4.026,2.626
			c15.057,9.629,34.314,20.307,54.096,25.56c-5.778-5.603-9.804-12.955-10.678-21.535c-1.752-18.732,12.077-35.363,30.635-37.287
			c18.73-1.752,35.539,12.078,37.287,30.635c1.051,9.279-1.924,18.033-7.352,24.685
			C434.152,228.261,446.932,209.878,456.208,190.446L456.208,190.446z M297.251,224.232c-22.583,24.686-36.238,57.423-36.238,93.489
			c0,63.369,42.54,116.938,100.66,133.573c3.676-82.983,0.878-151.256-60.396-222.507L297.251,224.232z"/>
		<linearGradient id="SVGID_1_" gradientUnits="userSpaceOnUse" x1="446.7568" y1="147.3808" x2="517.3037" y2="147.3808">
			<stop  offset="0" style="stop-color:#F3372B"/>
			<stop  offset="0.5" style="stop-color:#D91000"/>
			<stop  offset="1" style="stop-color:#AB2416"/>
		</linearGradient>
		<polygon style="fill-rule:evenodd;clip-rule:evenodd;fill:url(#SVGID_1_);" points="486.846,111.842 490.344,138.977 
			517.304,143.879 492.624,155.785 496.297,182.919 477.39,162.962 452.71,174.865 465.84,150.882 446.757,130.925 473.717,136.003 
					"/>
		
			<linearGradient id="SVGID_00000038388381483880812070000012683750022302011532_" gradientUnits="userSpaceOnUse" x1="307.9292" y1="324.3708" x2="478.2695" y2="324.3708">
			<stop  offset="0" style="stop-color:#F3372B"/>
			<stop  offset="0.5" style="stop-color:#D91000"/>
			<stop  offset="1" style="stop-color:#AB2416"/>
		</linearGradient>
		<path style="fill-rule:evenodd;clip-rule:evenodd;fill:url(#SVGID_00000038388381483880812070000012683750022302011532_);" d="
			M307.929,223.008c93.311,59.171,140.402,27.134,170.34-64.425c-10.506,133.924-57.772,251.571-109.594,331.575
			C373.753,388.268,380.755,307.739,307.929,223.008L307.929,223.008z M387.582,191.146c14.007-1.399,26.263,8.754,27.662,22.584
			c1.4,13.832-8.757,26.259-22.758,27.662c-13.832,1.224-26.084-8.929-27.486-22.758C363.6,204.803,373.753,192.373,387.582,191.146
			L387.582,191.146z"/>
	</g>
</g>
<g id="Layer_1">
</g>
</svg>
