<?xml version="1.0" encoding="utf-8"?>
<!-- Generator: Adobe Illustrator 27.5.0, SVG Export Plug-In . SVG Version: 6.00 Build 0)  -->
<svg version="1.1" xmlns="http://www.w3.org/2000/svg" xmlns:xlink="http://www.w3.org/1999/xlink" x="0px" y="0px"
	 viewBox="0 0 500 500" style="enable-background:new 0 0 500 500;" xml:space="preserve">
<g id="Background">
	<rect style="fill:#FFFFFF;" width="500" height="500"/>
</g>
<g id="Text">
	<g>
		<text transform="matrix(1 0 0 1 153.3426 365.7084)" style="font-family:'PTSans-Regular'; font-size:20px;">YOUR SLOGAN HERE</text>
		<text transform="matrix(1 0 0 1 64.7906 325.6215)"><tspan x="0" y="0" style="fill:#0241CC; font-family:'PTSans-Bold'; font-size:38.4256px;">CULTURAL</tspan><tspan x="185.056" y="0" style="fill:#232323; font-family:'PTSans-Bold'; font-size:38.4256px;"> DIVERSITY</tspan></text>
	</g>
</g>
<g id="Object">
	<g>
		<g>
			<g>
				<linearGradient id="SVGID_1_" gradientUnits="userSpaceOnUse" x1="113.7701" y1="198.887" x2="168.5978" y2="198.887">
					<stop  offset="0" style="stop-color:#346ADA"/>
					<stop  offset="1" style="stop-color:#0241CC"/>
				</linearGradient>
				<circle style="fill:url(#SVGID_1_);" cx="141.184" cy="198.887" r="27.414"/>
			</g>
			<g>
				
					<linearGradient id="SVGID_00000122702251517174022350000005168914548109357968_" gradientUnits="userSpaceOnUse" x1="135.0926" y1="146.9655" x2="241.5812" y2="146.9655">
					<stop  offset="0" style="stop-color:#346ADA"/>
					<stop  offset="1" style="stop-color:#0241CC"/>
				</linearGradient>
				<path style="fill:url(#SVGID_00000122702251517174022350000005168914548109357968_);" d="M159.918,164.539
					c0.812,0,1.588-0.301,2.207-0.827c8.575-7.286,19.67-11.691,31.777-11.691c10.639,0,20.745,3.333,29.249,9.644
					c4.498,3.338,10.807,3.311,14.861-0.552c5.21-4.964,4.559-13.148-0.936-17.29c-12.524-9.441-27.454-14.43-43.175-14.43
					c-23.91,0-45.118,11.756-58.169,29.785c-1.616,2.232,0.017,5.362,2.773,5.362H159.918z"/>
				
					<linearGradient id="SVGID_00000129193626312662401190000009219833361190050732_" gradientUnits="userSpaceOnUse" x1="132.0581" y1="223.4238" x2="296.0469" y2="223.4238">
					<stop  offset="0" style="stop-color:#346ADA"/>
					<stop  offset="1" style="stop-color:#0241CC"/>
				</linearGradient>
				<path style="fill:url(#SVGID_00000129193626312662401190000009219833361190050732_);" d="M292.547,177.019
					c-4.519-4.315-11.68-4.152-15.997,0.369c-2.265,2.372-6.543,7.72-13.909,16.968c-11.48,14.413-30.695,38.534-38.206,44.578
					c-7.353,5.919-16.143,11.397-30.533,11.397c-14.317,0-27.214-6.161-36.205-15.962c-0.653-0.712-1.562-1.135-2.529-1.135h-19.7
					c-2.639,0-4.288,2.892-2.916,5.146c12.604,20.712,35.382,34.58,61.349,34.58c21.581,0,35.237-8.763,44.721-16.397
					c8.75-7.042,24.07-25.954,41.718-48.109c5.359-6.729,10.901-13.687,12.575-15.439
					C297.23,188.497,297.066,181.335,292.547,177.019z"/>
			</g>
		</g>
		<g>
			<g>
				
					<linearGradient id="SVGID_00000068653021243009729220000003249557826937374357_" gradientUnits="userSpaceOnUse" x1="331.4012" y1="203.4657" x2="386.229" y2="203.4657">
					<stop  offset="0" style="stop-color:#F5AC55"/>
					<stop  offset="1" style="stop-color:#BC7E40"/>
				</linearGradient>
				<circle style="fill:url(#SVGID_00000068653021243009729220000003249557826937374357_);" cx="358.815" cy="203.466" r="27.414"/>
			</g>
			<g>
				
					<linearGradient id="SVGID_00000125572996485064868240000006322516760252194223_" gradientUnits="userSpaceOnUse" x1="258.4178" y1="255.3871" x2="364.9064" y2="255.3871">
					<stop  offset="0" style="stop-color:#F5AC55"/>
					<stop  offset="1" style="stop-color:#BC7E40"/>
				</linearGradient>
				<path style="fill:url(#SVGID_00000125572996485064868240000006322516760252194223_);" d="M340.081,237.814
					c-0.812,0-1.588,0.301-2.207,0.827c-8.575,7.286-19.67,11.691-31.777,11.691c-10.639,0-20.744-3.333-29.249-9.644
					c-4.498-3.338-10.807-3.311-14.862,0.553c-5.21,4.964-4.559,13.148,0.936,17.29c12.524,9.44,27.454,14.43,43.175,14.43
					c23.91,0,45.118-11.756,58.169-29.786c1.616-2.232-0.017-5.362-2.773-5.362H340.081z"/>
				
					<linearGradient id="SVGID_00000025433461903245625340000009833086563252242618_" gradientUnits="userSpaceOnUse" x1="203.9521" y1="178.9289" x2="367.9409" y2="178.9289">
					<stop  offset="0" style="stop-color:#F5AC55"/>
					<stop  offset="1" style="stop-color:#BC7E40"/>
				</linearGradient>
				<path style="fill:url(#SVGID_00000025433461903245625340000009833086563252242618_);" d="M207.452,225.334
					c4.519,4.315,11.68,4.152,15.997-0.369c2.265-2.372,6.543-7.72,13.909-16.968c11.48-14.413,30.695-38.534,38.206-44.578
					c7.353-5.919,16.143-11.397,30.533-11.397c14.317,0,27.214,6.161,36.205,15.962c0.653,0.712,1.562,1.135,2.529,1.135h19.699
					c2.639,0,4.288-2.892,2.916-5.146c-12.604-20.712-35.382-34.58-61.349-34.58c-21.581,0-35.237,8.763-44.721,16.397
					c-8.75,7.042-24.07,25.954-41.718,48.109c-5.359,6.729-10.901,13.687-12.575,15.439
					C202.769,213.856,202.933,221.018,207.452,225.334z"/>
			</g>
		</g>
	</g>
</g>
</svg>
