<?xml version="1.0" encoding="utf-8"?>
<!-- Generator: Adobe Illustrator 27.5.0, SVG Export Plug-In . SVG Version: 6.00 Build 0)  -->
<svg version="1.1" xmlns="http://www.w3.org/2000/svg" xmlns:xlink="http://www.w3.org/1999/xlink" x="0px" y="0px"
	 viewBox="2385.893 -1875.171 4554.651 3588.58" style="enable-background:new 2385.893 -1875.171 4554.651 3588.58;"
	 xml:space="preserve">
<g id="Layer_1">
</g>
<g id="Layer_2">
</g>
<g id="Dimensions">
	<rect x="2385.893" y="-1875.171" style="fill:#FFFFFF;" width="4554.651" height="3588.58"/>
	<g>
		<g>
			<g>
				<path style="fill-rule:evenodd;clip-rule:evenodd;fill:#FF201E;" d="M5966.036,584.289
					c43.713,93.013-170.212,92.236-295.859,54.826c-276.519-82.333-754.61-459.486-911.61-419.705
					c-47.153,11.944-123.786,130.705-151.22,160.852C4458,544.389,4267.348,560.755,4169.986,402.547
					c-62.526-101.598-85.038-263.945-92.61-380.472c-0.278-4.242-0.545-8.534-0.809-12.874
					c-82.582,209.033-174.296,472.994-215.054,550.521c-13.718,26.093-8.043,17.125-30.97,38.195
					c-9.948-29.684-9.308-19.299-8.911-48.419c1.983-145.734,95.475-636.271,170.341-804.98
					c39.885-89.881,124.098-182.867,222.821-159.982c106.777,24.751,130.518,272.108,150.596,379.161
					c15.489,82.568,18.957,184.228,40.5,269.736c49.603-58.559,100.483-134.159,225.173-189.665
					c444.211-197.745,806.64,283.398,1117.759,493.098c107.542,72.489,92.401,57.138,217.222,47.429L5966.036,584.289z"/>
				<path style="fill-rule:evenodd;clip-rule:evenodd;fill:#FF201E;" d="M4047.266-641.691
					c30.621-100.289,148.768-207.429,273.06-239.084c136.935-34.876,221.362,35.259,176.889,156.022
					c-42.937,116.588-184.976,220.653-307.533,234.762C4077.826-477.113,4017.544-544.332,4047.266-641.691z"/>
				<path style="fill-rule:evenodd;clip-rule:evenodd;fill:#008CFF;" d="M4442.499,496.7
					c-237.047,31.173-89.046-1253.107-368.822-480.186c0.963-2.445,1.926-4.884,2.886-7.316c0.264,4.336,0.531,8.632,0.809,12.873
					c7.576,116.531,30.084,278.874,92.61,380.473c64.149,104.237,166.883,132.547,272.517,94.153V496.7z"/>
				<path style="fill-rule:evenodd;clip-rule:evenodd;fill:#008CFF;" d="M4758.736,219.365
					c157.148-39.488,635.019,337.44,911.443,419.746c32.847,9.777,71.359,17.028,109.823,20.729
					c-336.333-178.065-738.016-543.865-1021.267-440.478V219.365z"/>
				
					<linearGradient id="SVGID_1_" gradientUnits="userSpaceOnUse" x1="4250.3638" y1="404.2237" x2="4202.9307" y2="-246.2936" gradientTransform="matrix(0.998 -0.0638 0.0638 0.998 15.4671 311.0475)">
					<stop  offset="0.2899" style="stop-color:#FFFFFF"/>
					<stop  offset="0.358" style="stop-color:#EEEEEE"/>
					<stop  offset="0.4923" style="stop-color:#C3C3C3"/>
					<stop  offset="0.6801" style="stop-color:#7D7D7D"/>
					<stop  offset="0.9117" style="stop-color:#1D1D1D"/>
					<stop  offset="0.98" style="stop-color:#000000"/>
				</linearGradient>
				<path style="fill-rule:evenodd;clip-rule:evenodd;fill:url(#SVGID_1_);" d="M4442.499,496.7
					c-237.047,31.173-89.046-1253.107-368.822-480.186c0.963-2.445,1.926-4.884,2.886-7.316c0.264,4.336,0.531,8.632,0.809,12.873
					c7.576,116.531,30.084,278.874,92.61,380.473c64.149,104.237,166.883,132.547,272.517,94.153V496.7z"/>
				
					<linearGradient id="SVGID_00000037665483470160033500000011445061325460131734_" gradientUnits="userSpaceOnUse" x1="5552.6753" y1="683.2644" x2="4786.9609" y2="147.9415" gradientTransform="matrix(0.998 -0.0638 0.0638 0.998 15.4671 311.0475)">
					<stop  offset="0.2899" style="stop-color:#FFFFFF"/>
					<stop  offset="0.5716" style="stop-color:#959595"/>
					<stop  offset="0.98" style="stop-color:#000000"/>
				</linearGradient>
				<path style="fill-rule:evenodd;clip-rule:evenodd;fill:url(#SVGID_00000037665483470160033500000011445061325460131734_);" d="
					M4758.736,219.365c157.148-39.488,635.019,337.44,911.443,419.746c32.847,9.777,71.359,17.028,109.823,20.729
					c-336.333-178.065-738.016-543.865-1021.267-440.478V219.365z"/>
			</g>
			
				<radialGradient id="SVGID_00000081637946641667193580000016920167366115946147_" cx="4331.1953" cy="37685.293" r="1112.1085" fx="4831.2656" fy="37761.5" gradientTransform="matrix(-1.1542 0.0426 -0.0068 -0.1838 10183.4971 7252.7593)" gradientUnits="userSpaceOnUse">
				<stop  offset="0.02" style="stop-color:#000000"/>
				<stop  offset="0.0422" style="stop-color:#191919"/>
				<stop  offset="0.089" style="stop-color:#494949"/>
				<stop  offset="0.1399" style="stop-color:#747474"/>
				<stop  offset="0.1936" style="stop-color:#9A9A9A"/>
				<stop  offset="0.2509" style="stop-color:#B9B9B9"/>
				<stop  offset="0.3128" style="stop-color:#D3D3D3"/>
				<stop  offset="0.3813" style="stop-color:#E7E7E7"/>
				<stop  offset="0.4598" style="stop-color:#F4F4F4"/>
				<stop  offset="0.557" style="stop-color:#FDFDFD"/>
				<stop  offset="0.7297" style="stop-color:#FFFFFF"/>
			</radialGradient>
			
				<path style="opacity:0.76;fill-rule:evenodd;clip-rule:evenodd;fill:url(#SVGID_00000081637946641667193580000016920167366115946147_);" d="
				M3139.163,578.291c-4.911-132.903,792.226-270.245,1780.455-306.762c988.229-36.517,1793.329,41.619,1798.24,174.523
				c4.911,132.903-792.226,270.245-1780.456,306.762C3949.174,789.33,3144.074,711.194,3139.163,578.291z"/>
		</g>
		
			<linearGradient id="SVGID_00000007414412964213898900000005799699142656378030_" gradientUnits="userSpaceOnUse" x1="4346.3823" y1="286.9087" x2="4816.79" y2="167.6362" gradientTransform="matrix(0.998 -0.0638 0.0638 0.998 15.4671 311.0475)">
			<stop  offset="0.02" style="stop-color:#000000"/>
			<stop  offset="0.027" style="stop-color:#080808"/>
			<stop  offset="0.0775" style="stop-color:#424242"/>
			<stop  offset="0.1293" style="stop-color:#747474"/>
			<stop  offset="0.1815" style="stop-color:#9F9F9F"/>
			<stop  offset="0.2341" style="stop-color:#C2C2C2"/>
			<stop  offset="0.2871" style="stop-color:#DDDDDD"/>
			<stop  offset="0.3408" style="stop-color:#F0F0F0"/>
			<stop  offset="0.3956" style="stop-color:#FBFBFB"/>
			<stop  offset="0.4533" style="stop-color:#FFFFFF"/>
		</linearGradient>
		<path style="fill-rule:evenodd;clip-rule:evenodd;fill:url(#SVGID_00000007414412964213898900000005799699142656378030_);" d="
			M4603.743,92.748l-89.873,23.504c0,0-56.806,55.173-78.023,80.949s-29.958,36.231-29.958,36.231s43.559,207.557,163.991,179.491
			l5.699-0.836c0,0,30.729-31.247,60.529-69.648s89.562-112.67,89.562-112.67L4603.743,92.748z"/>
	</g>
</g>
<g id="Layer_4">
</g>
</svg>
