<svg width="17" height="15" viewBox="0 0 17 15" fill="none" xmlns="http://www.w3.org/2000/svg">
<g clip-path="url(#clip0_14636_18754)">
<path d="M16.125 7.06155L16.2503 7.18012V6.81975C16.2503 6.02618 15.6972 5.38012 15.0179 5.38012H13.9317C13.1717 2.19463 10.5827 0.481445 6.73119 0.481445C4.27857 0.481445 3.96353 0.481445 1.64083 0.481445C1.64083 0.481445 2.33819 1.07102 2.33819 2.92751V5.38198H1.05389C0.804264 5.38198 0.569953 5.28489 0.376008 5.10143L0.250732 4.98286V5.34324C0.250732 6.13728 0.8038 6.78287 1.48307 6.78287H2.33866V8.18282H1.05435C0.804728 8.18282 0.570417 8.08619 0.376472 7.90227L0.251196 7.7837V8.14361C0.251196 8.93718 0.804264 9.58231 1.48354 9.58231H2.33912V12.1446C2.33912 13.9488 1.64175 14.4814 1.64175 14.4814H6.73212C10.7047 14.4814 13.2112 12.7561 13.9415 9.58091H15.4476C15.6972 9.58091 15.9315 9.67754 16.1255 9.86099L16.2507 9.97956V9.61965C16.2507 8.82608 15.6977 8.18049 15.0184 8.18049H14.1415C14.1563 7.95269 14.1642 7.71975 14.1642 7.48028C14.1642 7.24081 14.1558 7.00834 14.1405 6.78054H15.4476C15.6967 6.78054 15.9315 6.87716 16.1255 7.06109L16.125 7.06155ZM4.42426 1.18212H6.55209C9.41487 1.18212 11.0731 2.4579 11.5677 5.38058L4.42426 5.38152V1.18212ZM6.57019 13.7822H4.4238V9.58184L11.5631 9.58091C11.1005 12.2258 9.61113 13.7065 6.57019 13.7822ZM11.7264 7.48168C11.7264 7.72115 11.7213 7.95455 11.7107 8.18142L4.42426 8.18236V6.7824L11.7111 6.78147C11.7213 7.0074 11.7264 7.24034 11.7264 7.48168Z" fill="black"/>
</g>
<defs>
<clipPath id="clip0_14636_18754">
<rect width="16" height="14" fill="white" transform="translate(0.25 0.481445)"/>
</clipPath>
</defs>
</svg>
